<?xml version="1.0" encoding="UTF-8"?>
<!-- Generator: Blender, SVG Export for Grease Pencil - v2.1 -->
<!DOCTYPE svg PUBLIC "-//W3C//DTD SVG 1.1//EN" "http://www.w3.org/Graphics/SVG/1.1/DTD/svg11.dtd">
<svg version="1.1" x="0px" y="0px" xmlns="http://www.w3.org/2000/svg" width="512.000000px" height="512.000000px" viewBox="0 0 512.000000 512.000000">
	<g id="blender_frame.0">
		<g id="blender_object.Text.0.uuid_0x0">
			<g id="layer.Converted Layer.uuid_0x1">
				<path d="M75.35698,208.14017 C 53.374294,240.80795, 31.391615,273.4757, 9.40892,306.14346 C 7.0949707,306.14346, 4.78096,306.14346, 2.4669952,306.14346 C 24.34761,273.4757, 46.22822,240.80795, 68.10881,208.14017 C 70.52487,208.14017, 72.94093,208.14017, 75.35698,208.14017zM144.23152,208.14017 C 147.66846,208.14017, 151.10538,208.14017, 154.5423,208.14017 C 144.50375,236.62238, 134.4652,265.10458, 124.4267,293.5868 C 119.83279,293.5868, 115.23888,293.5868, 110.64497,293.5868 C 100.5157,265.10458, 90.38641,236.62238, 80.25714,208.14017 C 83.69406,208.14017, 87.13098,208.14017, 90.56791,208.14017 C 99.57421,234.07019, 108.58055,260.00024, 117.58687,285.9303 C 126.46842,260.00024, 135.34998,234.07019, 144.23152,208.14017zM168.49414,216.78351 C 168.49414,226.40234, 168.49414,236.02118, 168.49414,245.64008 C 182.99046,245.64008, 197.4868,245.64008, 211.98312,245.64008 C 211.98312,248.33966, 211.98312,251.0393, 211.98312,253.73892 C 197.4868,253.73892, 182.99046,253.73892, 168.49414,253.73892 C 168.49414,264.23117, 168.49414,274.72345, 168.49414,285.2157 C 183.63702,285.2157, 198.77989,285.2157, 213.92276,285.2157 C 213.92276,288.00607, 213.92276,290.79645, 213.92276,293.5868 C 195.66058,293.5868, 177.39838,293.5868, 159.1362,293.5868 C 159.1362,265.10458, 159.1362,236.62238, 159.1362,208.14017 C 177.39838,208.14017, 195.66058,208.14017, 213.92276,208.14017 C 213.92276,211.02127, 213.92276,213.9024, 213.92276,216.78351 C 198.77989,216.78351, 183.63702,216.78351, 168.49414,216.78351zM291.7129,208.14017 C 291.7129,236.62238, 291.7129,265.10458, 291.7129,293.5868 C 286.50644,293.5868, 281.30005,293.5868, 276.09363,293.5868 C 260.1114,267.84958, 244.12912,242.11237, 228.14687,216.37515 C 228.14687,242.11237, 228.14687,267.84958, 228.14687,293.5868 C 225.0389,293.5868, 221.93091,293.5868, 218.82294,293.5868 C 218.82294,265.10458, 218.82294,236.62238, 218.82294,208.14017 C 223.98401,208.14017, 229.14503,208.14017, 234.30609,208.14017 C 250.33374,234.16095, 266.36133,260.18176, 282.38898,286.2025 C 282.38898,260.18176, 282.38898,234.16095, 282.38898,208.14017 C 285.49695,208.14017, 288.60495,208.14017, 291.7129,208.14017zM332.99002,217.32797 C 332.99002,242.74759, 332.99002,268.16718, 332.99002,293.5868 C 329.7346,293.5868, 326.47916,293.5868, 323.22372,293.5868 C 323.22372,268.16718, 323.22372,242.74759, 323.22372,217.32797 C 314.02457,217.32797, 304.8254,217.32797, 295.62625,217.32797 C 295.62625,214.26541, 295.62625,211.20276, 295.62625,208.14017 C 317.18924,208.14017, 338.75226,208.14017, 360.31525,208.14017 C 360.31525,211.20276, 360.31525,214.26541, 360.31525,217.32797 C 351.20685,217.32797, 342.09842,217.32797, 332.99002,217.32797zM364.73898,252.34375 C 364.73898,250.66498, 364.73898,248.98624, 364.73898,247.30746 C 364.73898,240.13873, 364.94885,234.34811, 365.36853,229.9357 C 365.7882,225.52325, 366.85446,221.59296, 368.56726,218.14465 C 370.28003,214.69641, 373.0534,212.00247, 376.88733,210.06284 C 380.72125,208.12314, 385.97305,207.15332, 392.64273,207.15332 C 393.9812,207.15332, 395.31964,207.15332, 396.65814,207.15332 C 403.23706,207.15332, 408.57956,207.45392, 412.6858,208.05511 C 416.7919,208.65628, 420.25717,209.89264, 423.08157,211.76422 C 425.90598,213.63586, 428.04416,216.51129, 429.49603,220.39056 C 430.94794,224.26987, 431.6739,229.47629, 431.6739,236.00989 C 431.6739,249.39459, 431.68155,259.57056, 431.50378,266.5338 C 431.3676,271.865, 430.79483,276.27744, 429.7853,279.77106 C 428.7758,283.2647, 427.17642,286.1061, 424.9872,288.2953 C 422.79803,290.4845, 419.88284,292.0782, 416.24173,293.07635 C 412.60068,294.07455, 408.0805,294.57364, 402.68124,294.57364 C 401.8872,294.57364, 400.71893,294.52258, 399.17624,294.42053 C 397.6336,294.31842, 396.3405,294.2674, 395.29697,294.2674 C 390.1019,294.2674, 385.7405,293.93842, 382.21286,293.28052 C 378.68518,292.62265, 375.69632,291.4146, 373.24622,289.65646 C 370.79614,287.89832, 368.88483,285.35748, 367.51236,282.034 C 366.13986,278.71048, 365.3308,274.38245, 365.04526,269.05194 C 364.84106,265.24072, 364.73898,259.6713, 364.73898,252.34375zM374.6414,251.90137 C 374.6414,256.46124, 374.6414,261.02112, 374.6414,265.581 C 374.77753,271.29785, 375.37305,275.5912, 376.4279,278.46094 C 377.48285,281.33072, 379.4168,283.3384, 382.22983,284.48407 C 385.0429,285.6297, 389.29657,286.2025, 394.99072,286.2025 C 400.5261,286.2025, 404.83643,286.0267, 407.9217,285.67508 C 411.007,285.32343, 413.5705,284.46704, 415.6122,283.1059 C 417.65396,281.74475, 419.17957,279.6009, 420.18915,276.67444 C 421.19867,273.74792, 421.75784,269.7208, 421.9076,264.59415 C 422.0891,258.3782, 422.1798,248.99756, 422.1798,236.45221 C 422.1798,229.66913, 421.40848,224.80865, 419.86584,221.87082 C 418.32318,218.93298, 415.96954,217.1181, 412.80487,216.42621 C 409.64017,215.73428, 404.4961,215.3883, 397.37274,215.3883 C 396.2611,215.3883, 395.1495,215.3883, 394.0379,215.3883 C 388.72937,215.3883, 384.77637,215.86478, 382.17883,216.81754 C 379.5813,217.77032, 377.72665,219.69864, 376.61508,222.60245 C 375.50345,225.50626, 374.89096,230.07748, 374.77753,236.3161 C 374.73218,241.51123, 374.6868,246.70627, 374.6414,251.90137zM509.29385,208.14017 C 487.31116,240.80795, 465.3285,273.4757, 443.34583,306.14346 C 441.03183,306.14346, 438.71786,306.14346, 436.40393,306.14346 C 458.28445,273.4757, 480.16513,240.80795, 502.04572,208.14017 C 504.46176,208.14017, 506.8778,208.14017, 509.29385,208.14017z" fill-rule="evenodd" fill="#E7E7E7" stroke="none" fill-opacity="1" />
			</g>
		</g>
	</g>
</svg>
