<?xml version="1.0" encoding="UTF-8"?>
<!-- Generator: Blender, SVG Export for Grease Pencil - v2.1 -->
<!DOCTYPE svg PUBLIC "-//W3C//DTD SVG 1.1//EN" "http://www.w3.org/Graphics/SVG/1.1/DTD/svg11.dtd">
<svg version="1.1" x="0px" y="0px" xmlns="http://www.w3.org/2000/svg" width="512.000000px" height="120.000000px" viewBox="0 0 512.000000 120.000000">
	<g id="blender_frame.0">
		<g id="blender_object.Text.0.uuid_0x0">
			<g id="layer.Converted Layer.uuid_0x1">
				<path d="M75.35698,12.14016 C 53.3743,44.80793, 31.391619,77.4757, 9.40892,110.14347 C 7.0949707,110.14347, 4.78096,110.14347, 2.4669955,110.14347 C 24.347612,77.4757, 46.228226,44.80793, 68.10881,12.14016 C 70.52487,12.14016, 72.94093,12.14016, 75.35698,12.14016zM144.23152,12.14016 C 147.66846,12.14016, 151.10538,12.14016, 154.5423,12.14016 C 144.50375,40.622368, 134.46521,69.10458, 124.426704,97.58679 C 119.832794,97.58679, 115.23888,97.58679, 110.64497,97.58679 C 100.5157,69.10458, 90.38641,40.622368, 80.25714,12.14016 C 83.69406,12.14016, 87.13099,12.14016, 90.56792,12.14016 C 99.57422,38.070198, 108.58055,64.000244, 117.586876,89.93029 C 126.46843,64.000244, 135.34998,38.070198, 144.23152,12.14016zM168.49417,20.7835 C 168.49417,30.402351, 168.49417,40.021194, 168.49417,49.640038 C 182.99048,49.640038, 197.48682,49.640038, 211.98312,49.640038 C 211.98312,52.33967, 211.98312,55.03929, 211.98312,57.73892 C 197.48682,57.73892, 182.99048,57.73892, 168.49417,57.73892 C 168.49417,68.23117, 168.49417,78.723434, 168.49417,89.21568 C 183.63704,89.21568, 198.7799,89.21568, 213.92279,89.21568 C 213.92279,92.00606, 213.92279,94.796425, 213.92279,97.58679 C 195.66058,97.58679, 177.39839,97.58679, 159.1362,97.58679 C 159.1362,69.10458, 159.1362,40.622368, 159.1362,12.14016 C 177.39839,12.14016, 195.66058,12.14016, 213.92279,12.14016 C 213.92279,15.021278, 213.92279,17.90239, 213.92279,20.7835 C 198.7799,20.7835, 183.63704,20.7835, 168.49417,20.7835zM291.71292,12.14016 C 291.71292,40.622368, 291.71292,69.10458, 291.71292,97.58679 C 286.5065,97.58679, 281.30005,97.58679, 276.09363,97.58679 C 260.1114,71.84958, 244.12912,46.112373, 228.14687,20.37516 C 228.14687,46.112373, 228.14687,71.84958, 228.14687,97.58679 C 225.0389,97.58679, 221.93094,97.58679, 218.82294,97.58679 C 218.82294,69.10458, 218.82294,40.622368, 218.82294,12.14016 C 223.98401,12.14016, 229.14505,12.14016, 234.30612,12.14016 C 250.33374,38.160942, 266.36136,64.18173, 282.389,90.20252 C 282.389,64.18173, 282.389,38.160942, 282.389,12.14016 C 285.49698,12.14016, 288.60495,12.14016, 291.71292,12.14016zM332.99002,21.327965 C 332.99002,46.747574, 332.99002,72.16719, 332.99002,97.58679 C 329.7346,97.58679, 326.47916,97.58679, 323.22372,97.58679 C 323.22372,72.16719, 323.22372,46.747574, 323.22372,21.327965 C 314.02457,21.327965, 304.8254,21.327965, 295.62625,21.327965 C 295.62625,18.265366, 295.62625,15.202766, 295.62625,12.14016 C 317.18927,12.14016, 338.7523,12.14016, 360.31525,12.14016 C 360.31525,15.202766, 360.31525,18.265366, 360.31525,21.327965 C 351.20685,21.327965, 342.09842,21.327965, 332.99002,21.327965zM364.73898,56.34373 C 364.73898,54.664978, 364.73898,52.986214, 364.73898,51.30745 C 364.73898,44.138695, 364.94885,38.3481, 365.36853,33.935684 C 365.78824,29.523262, 366.85446,25.592934, 368.56726,22.14466 C 370.28006,18.696396, 373.0534,16.002426, 376.88736,14.06279 C 380.72125,12.123146, 385.97308,11.153313, 392.64273,11.153313 C 393.9812,11.153313, 395.31967,11.153313, 396.65817,11.153313 C 403.23706,11.153313, 408.5796,11.453911, 412.6858,12.055084 C 416.79193,12.656265, 420.2572,13.892639, 423.08163,15.764236 C 425.906,17.635841, 428.0442,20.511276, 429.49603,24.390572 C 430.94797,28.269867, 431.67392,33.476295, 431.67392,40.00985 C 431.67392,53.39456, 431.68158,63.570553, 431.50378,70.5338 C 431.36765,75.865, 430.79483,80.27741, 429.78534,83.77106 C 428.7758,87.264694, 427.17642,90.10612, 424.98724,92.2953 C 422.79803,94.4845, 419.8829,96.078186, 416.24176,97.07636 C 412.6007,98.07454, 408.0805,98.57363, 402.68127,98.57363 C 401.88724,98.57363, 400.71893,98.5226, 399.17627,98.4205 C 397.6336,98.31842, 396.3405,98.26738, 395.29697,98.26738 C 390.1019,98.26738, 385.7405,97.93843, 382.21286,97.28053 C 378.6852,96.62265, 375.69632,95.41462, 373.24622,93.656456 C 370.79617,91.89829, 368.8849,89.35746, 367.51236,86.03398 C 366.13986,82.71048, 365.33084,78.38245, 365.04526,73.05194 C 364.84106,69.2407, 364.73898,63.6713, 364.73898,56.34373zM374.64145,55.90136 C 374.64145,60.461235, 374.64145,65.02111, 374.64145,69.58099 C 374.77753,75.29785, 375.37305,79.59117, 376.42792,82.46094 C 377.48288,85.33071, 379.4168,87.33842, 382.22986,88.484055 C 385.04294,89.6297, 389.2966,90.20252, 394.99072,90.20252 C 400.5261,90.20252, 404.83643,90.0267, 407.92172,89.67507 C 411.007,89.32344, 413.57053,88.46703, 415.61224,87.10589 C 417.654,85.74473, 419.1796,83.60091, 420.18915,80.67442 C 421.1987,77.74793, 421.7579,73.720795, 421.9076,68.59415 C 422.0891,62.378197, 422.17984,52.99756, 422.17984,40.452225 C 422.17984,33.66913, 421.4085,28.808662, 419.86588,25.870827 C 418.3232,22.932999, 415.96954,21.118118, 412.80487,20.4262 C 409.6402,19.734276, 404.49612,19.388313, 397.37277,19.388313 C 396.26114,19.388313, 395.1495,19.388313, 394.0379,19.388313 C 388.7294,19.388313, 384.7764,19.86473, 382.17883,20.817535 C 379.5813,21.77034, 377.72668,23.698647, 376.6151,26.602448 C 375.5035,29.506248, 374.89096,34.07747, 374.77753,40.31611 C 374.73218,45.511192, 374.6868,50.706276, 374.64145,55.90136zM509.2939,12.14016 C 487.3112,44.80793, 465.32852,77.4757, 443.34586,110.14347 C 441.0319,110.14347, 438.71786,110.14347, 436.40396,110.14347 C 458.2845,77.4757, 480.16516,44.80793, 502.04575,12.14016 C 504.4618,12.14016, 506.87784,12.14016, 509.2939,12.14016z" fill-rule="evenodd" fill="#E7E7E7" stroke="none" fill-opacity="1" />
			</g>
		</g>
	</g>
</svg>
